<svg width="128" height="128" viewBox="0 0 1082 1024" xmlns="http://www.w3.org/2000/svg">
    <path fill="#707070" d="M1005.869333 32.529957A154.565135 154.565135 0 0 0 929.017309 12.437925a161.573427 161.573427 0 0 0-107.540212 40.56677c-50.732382 45.446264-78.909065 106.918315-101.512602 166.572516l-2.655018 6.888697 79.315689 20.092033 5.142604-12.988064c19.517974-48.890612 47.886011-110.147392 92.92565-150.52281a82.353414 82.353414 0 0 1 54.846465-20.905281c13.370769 0 26.358833 3.252996 36.620121 9.137091 20.737848 11.983462 27.339516 30.640349 20.13987 57.405807-10.093854 36.931069-49.153722 82.97531-115.95973 136.314872l-6.171124 5.070846-7.199645-3.635701a121.700311 121.700311 0 0 0-35.137138-11.959543l-45.230992-7.917217-51.473873 166.73995c2.750695 6.505991 4.257597 13.633879 4.257597 21.120553 0 30.592511-25.13896 55.396604-56.162014 55.396604-30.975217 0-56.114176-24.804092-56.114177-55.396604 0-27.076406 22.388265-52.717666 46.618299-55.468361 0.550139-16.528089 3.492187-31.525356 3.779216-36.476607 4.568545-46.044241 29.755343-115.983649 29.755343-115.983649l-106.2725-18.656887a106.248581 106.248581 0 0 0-20.13987-1.602579c-29.827101 0-61.472052 9.735068-82.831796 25.545584L56.831749 564.490435A95.317559 95.317559 0 0 0 18.417696 628.593586a92.973488 92.973488 0 0 0 20.139871 71.398472l224.863329 279.56628a100.316648 100.316648 0 0 0 66.806008 36.691878c4.329355 0.621896 8.826143 0.813249 13.155498 0.813249 22.412184 0 43.580575-6.888697 61.280699-20.092032L855.824905 664.280862c27.148163-20.092032 47.694658-56.80783 49.943052-89.672654l15.834435-227.231319 3.085562-2.439747c50.971573-38.127023 120.863143-96.967976 139.78314-166.333325 16.839037-59.845554-5.7645-115.840135-58.601761-146.07386z"/>
</svg>
